HIERARCHY
ROOT RootJoint
{
    OFFSET   0.000000   0.000000   0.000000
    CHANNELS 6 Xposition Yposition Zposition Xrotation Yrotation Zrotation
    JOINT pelvis_lowerback
    {
        OFFSET   0.000000   0.093605   0.000000
        CHANNELS 3 Xrotation Yrotation Zrotation
        JOINT lowerback_torso
        {
            OFFSET   0.000000   0.100000   0.000000
            CHANNELS 3 Xrotation Yrotation Zrotation
            JOINT torso_head
            {
                OFFSET   0.000000   0.282350   0.000000
                CHANNELS 3 Xrotation Yrotation Zrotation
                End Site
                {
                    OFFSET   0.000000   0.192650   0.000000
                }
            }
            JOINT rTorso_Clavicle
            {
                OFFSET  -0.001000   0.157500   0.000000
                CHANNELS 3 Xrotation Yrotation Zrotation
                JOINT rShoulder
                {
                    OFFSET  -0.117647   0.000000   0.000000
                    CHANNELS 3 Xrotation Yrotation Zrotation
                    JOINT rElbow
                    {
                        OFFSET  -0.245000   0.000000   0.000000
                        CHANNELS 3 Xrotation Yrotation Zrotation
                        JOINT rWrist
                        {
                            OFFSET  -0.240000   0.000000   0.000000
                            CHANNELS 3 Xrotation Yrotation Zrotation
                            End Site
                            {
                                OFFSET  -0.116353  -0.002500   0.000000
                            }
                        }
                    }
                }
            }
            JOINT lTorso_Clavicle
            {
                OFFSET   0.001000   0.157500   0.000000
                CHANNELS 3 Xrotation Yrotation Zrotation
                JOINT lShoulder
                {
                    OFFSET   0.117647   0.000000   0.000000
                    CHANNELS 3 Xrotation Yrotation Zrotation
                    JOINT lElbow
                    {
                        OFFSET   0.245000   0.000000   0.000000
                        CHANNELS 3 Xrotation Yrotation Zrotation
                        JOINT lWrist
                        {
                            OFFSET   0.240000   0.000000   0.000000
                            CHANNELS 3 Xrotation Yrotation Zrotation
                            End Site
                            {
                                OFFSET   0.116353  -0.002500   0.000000
                            }
                        }
                    }
                }
            }
        }
    }
    JOINT rHip
    {
        OFFSET  -0.100000  -0.051395   0.000000
        CHANNELS 3 Xrotation Yrotation Zrotation
        JOINT rKnee
        {
            OFFSET   0.000000  -0.410000   0.000000
            CHANNELS 3 Xrotation Yrotation Zrotation
            JOINT rAnkle
            {
                OFFSET   0.000000  -0.390000   0.000000
                CHANNELS 3 Xrotation Yrotation Zrotation
                JOINT rToeJoint
                {
                    OFFSET   0.000000  -0.050000   0.130000
                    CHANNELS 3 Xrotation Yrotation Zrotation
                    End Site
                    {
                        OFFSET  -0.010000   0.002000   0.060000
                    }
                }
            }
        }
    }
    JOINT lHip
    {
        OFFSET   0.100000  -0.051395   0.000000
        CHANNELS 3 Xrotation Yrotation Zrotation
        JOINT lKnee
        {
            OFFSET   0.000000  -0.410000   0.000000
            CHANNELS 3 Xrotation Yrotation Zrotation
            JOINT lAnkle
            {
                OFFSET   0.000000  -0.390000   0.000000
                CHANNELS 3 Xrotation Yrotation Zrotation
                JOINT lToeJoint
                {
                    OFFSET   0.000000  -0.050000   0.130000
                    CHANNELS 3 Xrotation Yrotation Zrotation
                    End Site
                    {
                        OFFSET   0.010000   0.002000   0.060000
                    }
                }
            }
        }
    }
}
MOTION
Frames: 10
Frame Time:   0.008333
 -3.430874   0.583108   4.407071 -146.075697  41.097421 153.218477  45.575348   1.025446  -0.353618  -3.062354  -0.502355   0.301753  -3.339111   0.157100  -5.407610   0.821688  21.873175 -10.620792  11.628057  26.943853  23.855339   0.040285  74.086376  -0.042270  11.837619   4.715623  -6.972801  -2.235218 -21.755422   6.226564  17.002301 -23.527056 -23.107354   0.024182 -81.530218   0.020290  10.001078  -7.245754  11.037165 -43.018970  -7.750131 -15.651124 105.022381  -0.000066   0.000032 -45.184067  -4.620790   1.730266   0.352273   0.000004  -0.000015 -48.104703   3.427192  20.755204 107.479970  -0.001118  -0.001055 -40.300639   0.437584  -0.013291  -2.483411  -0.000059   0.000503
 -3.432134   0.583081   4.407033 -146.037816  41.080460 153.053986  45.441672   1.108837  -0.361288  -3.163995  -0.532293   0.396512  -3.415227   0.287947  -5.333163   0.816461  21.738875 -10.487162  11.457283  26.986056  24.063001   0.037885  73.462186  -0.040334  11.974111   4.740851  -6.997607  -2.263414 -21.800301   6.210287  16.977224 -23.677709 -23.149151   0.022948 -81.112692   0.019282  10.082957  -7.321229  10.986382 -43.027175  -7.774551 -15.574903 104.955118  -0.000082   0.000044 -45.201202  -4.617272   1.816635   0.334192   0.000010  -0.000015 -47.577914   3.444662  20.757163 107.741302  -0.001075  -0.000929 -40.886921   0.450848   0.050446  -2.548865   0.000006   0.000443
 -3.433512   0.582894   4.406957 -146.031709  41.074653 152.885423  45.296905   1.202510  -0.341119  -3.262013  -0.553395   0.499235  -3.490285   0.414651  -5.258536   0.817428  21.598263 -10.360601  11.304239  27.012690  24.260080   0.035143  72.868656  -0.038029  12.098181   4.710013  -7.027318  -2.280844 -21.832842   6.185450  16.958723 -23.816747 -23.198588   0.021019 -80.718550   0.017664  10.156045  -7.369668  10.935383 -43.081878  -7.810253 -15.493617 104.902328  -0.000087   0.000054 -45.216964  -4.616283   1.902226   0.320759   0.000012  -0.000013 -47.026633   3.454269  20.772307 107.843135  -0.000937  -0.000775 -41.437210   0.464314   0.111315  -2.604446   0.000053   0.000391
 -3.434999   0.582515   4.406831 -146.044046  41.066758 152.711232  45.154486   1.293112  -0.299320  -3.354898  -0.571456   0.610508  -3.561117   0.533356  -5.185891   0.821313  21.458750 -10.243607  11.165132  27.031386  24.444525   0.032217  72.311998  -0.035434  12.214291   4.660155  -7.051430  -2.291687 -21.855184   6.161870  16.945776 -23.943256 -23.248177   0.018772 -80.350091   0.015726  10.224288  -7.409302  10.877290 -43.169481  -7.853982 -15.416851 104.871078  -0.000083   0.000057 -45.231023  -4.617427   1.986055   0.307975   0.000013  -0.000011 -46.473647   3.465773  20.794593 107.887153  -0.000778  -0.000635 -41.950863   0.476629   0.168572  -2.647790   0.000074   0.000339
 -3.436589   0.581941   4.406655 -146.068070  41.049952 152.530949  45.021040   1.377636  -0.241201  -3.440822  -0.589137   0.728677  -3.627412   0.644064  -5.115712   0.826775  21.323322 -10.134545  11.037505  27.044958  24.617088   0.029221  71.791087  -0.032657  12.324342   4.604000  -7.071874  -2.299445 -21.871743   6.141391  16.935987 -24.058824 -23.294977   0.016499 -80.005694   0.013745  10.288927  -7.443929  10.815550 -43.281137  -7.902823 -15.345603 104.862416  -0.000070   0.000050 -45.242745  -4.620252   2.067651   0.296020   0.000012  -0.000009 -45.929496   3.481788  20.820386 107.909965  -0.000632  -0.000518 -42.430019   0.487706   0.222212  -2.683521   0.000078   0.000291
 -3.438275   0.581182   4.406435 -146.100442  41.020041 152.344807  44.899764   1.455262  -0.170737  -3.518447  -0.607611   0.851742  -3.689231   0.747217  -5.048312   0.833515  21.193489 -10.031856  10.919942  27.055110  24.778949   0.026230  71.303980  -0.029781  12.429085   4.545669  -7.089528  -2.306000 -21.885503   6.123848  16.927755 -24.165234 -23.338171   0.014354 -79.683867   0.011876  10.350435  -7.474679  10.753500 -43.410750  -7.954970 -15.279036 104.875407  -0.000049   0.000033 -45.251941  -4.624371   2.146716   0.284978   0.000010  -0.000008 -45.400276   3.502275  20.847421 107.924792  -0.000509  -0.000422 -42.876940   0.497603   0.272372  -2.713974   0.000071   0.000246
 -3.440053   0.580249   4.406174 -146.139254  40.974273 152.153198  44.792173   1.525930  -0.091071  -3.586874  -0.627342   0.977813  -3.746722   0.843305  -4.983877   0.841534  21.069997  -9.934413  10.811494  27.062989  24.931205   0.023304  70.848654  -0.026875  12.528965   4.486999  -7.104125  -2.312194 -21.898228   6.108585  16.920208 -24.263972 -23.377798   0.012407 -79.383266   0.010199  10.409148  -7.502547  10.692881 -43.553723  -8.009269 -15.216158 104.908447  -0.000017   0.000010 -45.258608  -4.629486   2.223090   0.274833   0.000008  -0.000008 -44.889819   3.526426  20.874384 107.936360  -0.000407  -0.000344 -43.293807   0.506419   0.319235  -2.740399   0.000059   0.000205
 -3.441882   0.579204   4.406101 -146.190626  40.918091 151.994009  44.744600   1.640186   0.011086  -3.692507  -0.662225   1.024881  -3.865311   0.902506  -4.906465   0.788649  20.923145  -9.736637  10.658892  26.999371  25.158269   0.021929  70.336566  -0.026043  12.656424   4.510300  -7.181933  -2.337156 -21.892934   6.138694  16.901517 -24.406827 -23.487747   0.011400 -78.969354   0.009626  10.488190  -7.567770  10.705892 -43.721277  -8.001416 -15.103587 104.943897   0.000031   0.000009 -45.135076  -4.597591   2.374025   0.256784   0.000015  -0.000028 -44.258647   3.564047  20.902444 106.975591  -0.000083  -0.000162 -43.666412   0.534157   0.395197  -2.837286   0.000115   0.000165
 -3.443528   0.578573   4.405567 -145.779706  40.861900 151.641556  44.905653   1.778513   0.004599  -3.664329  -0.670197   1.001103  -3.975311   0.958095  -4.847043   0.747897  20.792857  -9.518981  10.517158  26.936018  25.383888   0.020012  69.842720  -0.024720  12.768447   4.456749  -7.273541  -2.347151 -21.878157   6.139729  16.892392 -24.529037 -23.602797   0.009866 -78.562716   0.008652  10.546654  -7.537380  10.709463 -43.519908  -7.828817 -15.034266 104.952938   0.000034   0.000002 -45.011383  -4.541028   2.470585   0.247090   0.000009  -0.000030 -44.171703   3.652399  20.983078 107.259766   0.000233  -0.000378 -43.848398   0.597674   0.407353  -2.701033   0.000261   0.000230
 -3.445147   0.578332   4.405083 -145.376168  40.823178 151.328826  45.048994   1.909758  -0.019191  -3.618454  -0.671853   0.967284  -4.079046   1.009786  -4.794108   0.726013  20.665317  -9.291070  10.392304  26.879899  25.612756   0.017699  69.380184  -0.022949  12.873719   4.390642  -7.335275  -2.338925 -21.850614   6.119831  16.894558 -24.641283 -23.726389   0.008126 -78.178704   0.007527  10.597054  -7.478983  10.676599 -43.300460  -7.640984 -14.979214 104.909432  -0.000010   0.000030 -44.897804  -4.485749   2.554667   0.243476   0.000006  -0.000026 -44.020785   3.776007  20.998629 107.432589   0.000308  -0.000508 -44.005390   0.645092   0.431753  -2.736035   0.000169   0.000181
